<svg 
 xmlns="http://www.w3.org/2000/svg"
 xmlns:xlink="http://www.w3.org/1999/xlink"
 width="16px" height="29px">
<path fill-rule="evenodd"  fill="rgb(51, 51, 51)"
 d="M1.775,0.212 C1.983,0.212 2.150,0.275 2.275,0.400 L15.525,13.650 C15.650,13.775 15.713,13.942 15.713,14.150 C15.713,14.359 15.650,14.525 15.525,14.650 L2.275,27.900 C2.150,28.025 1.983,28.088 1.775,28.088 C1.566,28.088 1.400,28.025 1.275,27.900 L0.775,27.400 C0.650,27.275 0.587,27.108 0.587,26.900 C0.587,26.691 0.650,26.504 0.775,26.338 L13.025,14.150 L0.775,1.962 C0.650,1.796 0.587,1.609 0.587,1.400 C0.587,1.192 0.650,1.025 0.775,0.900 L1.275,0.400 C1.400,0.275 1.566,0.212 1.775,0.212 Z"/>
</svg>