<svg 
 xmlns="http://www.w3.org/2000/svg"
 xmlns:xlink="http://www.w3.org/1999/xlink"
 width="25px" height="29px">
<path fill="#2e3192"
 d="M23.734,4.766 C24.245,5.277 24.500,5.896 24.500,6.625 L24.500,25.875 C24.500,26.604 24.245,27.223 23.734,27.734 C23.223,28.245 22.604,28.500 21.875,28.500 L2.625,28.500 C1.895,28.500 1.276,28.245 0.766,27.734 C0.255,27.223 -0.000,26.604 -0.000,25.875 L-0.000,6.625 C-0.000,5.896 0.255,5.277 0.766,4.766 C1.276,4.255 1.895,4.000 2.625,4.000 L5.250,4.000 L5.250,1.156 C5.250,0.974 5.313,0.820 5.441,0.691 C5.569,0.564 5.723,0.500 5.906,0.500 L6.344,0.500 C6.526,0.500 6.680,0.564 6.809,0.691 C6.936,0.820 7.000,0.974 7.000,1.156 L7.000,4.000 L17.500,4.000 L17.500,1.156 C17.500,0.974 17.563,0.820 17.691,0.691 C17.819,0.564 17.973,0.500 18.156,0.500 L18.594,0.500 C18.776,0.500 18.930,0.564 19.059,0.691 C19.186,0.820 19.250,0.974 19.250,1.156 L19.250,4.000 L21.875,4.000 C22.604,4.000 23.223,4.255 23.734,4.766 ZM1.996,5.996 C1.832,6.160 1.750,6.370 1.750,6.625 L1.750,9.250 L22.750,9.250 L22.750,6.625 C22.750,6.370 22.668,6.160 22.504,5.996 C22.340,5.832 22.130,5.750 21.875,5.750 L2.625,5.750 C2.370,5.750 2.160,5.832 1.996,5.996 ZM22.504,26.504 C22.668,26.340 22.750,26.130 22.750,25.875 L22.750,11.000 L1.750,11.000 L1.750,25.875 C1.750,26.130 1.832,26.340 1.996,26.504 C2.160,26.668 2.370,26.750 2.625,26.750 L21.875,26.750 C22.130,26.750 22.340,26.668 22.504,26.504 ZM8.559,17.809 C8.686,17.681 8.750,17.527 8.750,17.344 L8.750,15.156 C8.750,14.974 8.686,14.820 8.559,14.691 C8.430,14.564 8.276,14.500 8.094,14.500 L5.906,14.500 C5.723,14.500 5.569,14.564 5.441,14.691 C5.313,14.820 5.250,14.974 5.250,15.156 L5.250,17.344 C5.250,17.527 5.313,17.681 5.441,17.809 C5.569,17.937 5.723,18.000 5.906,18.000 L8.094,18.000 C8.276,18.000 8.430,17.937 8.559,17.809 ZM13.809,17.809 C13.936,17.681 14.000,17.527 14.000,17.344 L14.000,15.156 C14.000,14.974 13.936,14.820 13.809,14.691 C13.680,14.564 13.526,14.500 13.344,14.500 L11.156,14.500 C10.973,14.500 10.819,14.564 10.691,14.691 C10.563,14.820 10.500,14.974 10.500,15.156 L10.500,17.344 C10.500,17.527 10.563,17.681 10.691,17.809 C10.819,17.937 10.973,18.000 11.156,18.000 L13.344,18.000 C13.526,18.000 13.680,17.937 13.809,17.809 ZM19.059,17.809 C19.186,17.681 19.250,17.527 19.250,17.344 L19.250,15.156 C19.250,14.974 19.186,14.820 19.059,14.691 C18.930,14.564 18.776,14.500 18.594,14.500 L16.406,14.500 C16.223,14.500 16.069,14.564 15.941,14.691 C15.813,14.820 15.750,14.974 15.750,15.156 L15.750,17.344 C15.750,17.527 15.813,17.681 15.941,17.809 C16.069,17.937 16.223,18.000 16.406,18.000 L18.594,18.000 C18.776,18.000 18.930,17.937 19.059,17.809 ZM13.809,23.059 C13.936,22.931 14.000,22.777 14.000,22.594 L14.000,20.406 C14.000,20.224 13.936,20.070 13.809,19.941 C13.680,19.814 13.526,19.750 13.344,19.750 L11.156,19.750 C10.973,19.750 10.819,19.814 10.691,19.941 C10.563,20.070 10.500,20.224 10.500,20.406 L10.500,22.594 C10.500,22.777 10.563,22.931 10.691,23.059 C10.819,23.187 10.973,23.250 11.156,23.250 L13.344,23.250 C13.526,23.250 13.680,23.187 13.809,23.059 ZM8.559,23.059 C8.686,22.931 8.750,22.777 8.750,22.594 L8.750,20.406 C8.750,20.224 8.686,20.070 8.559,19.941 C8.430,19.814 8.276,19.750 8.094,19.750 L5.906,19.750 C5.723,19.750 5.569,19.814 5.441,19.941 C5.313,20.070 5.250,20.224 5.250,20.406 L5.250,22.594 C5.250,22.777 5.313,22.931 5.441,23.059 C5.569,23.187 5.723,23.250 5.906,23.250 L8.094,23.250 C8.276,23.250 8.430,23.187 8.559,23.059 ZM19.059,23.059 C19.186,22.931 19.250,22.777 19.250,22.594 L19.250,20.406 C19.250,20.224 19.186,20.070 19.059,19.941 C18.930,19.814 18.776,19.750 18.594,19.750 L16.406,19.750 C16.223,19.750 16.069,19.814 15.941,19.941 C15.813,20.070 15.750,20.224 15.750,20.406 L15.750,22.594 C15.750,22.777 15.813,22.931 15.941,23.059 C16.069,23.187 16.223,23.250 16.406,23.250 L18.594,23.250 C18.776,23.250 18.930,23.187 19.059,23.059 Z"/>
</svg> 