<svg id="Layer_1" fill="#58aa66" data-name="Layer 1" xmlns="http://www.w3.org/2000/svg" viewBox="0 0 451.8 348"><defs><style>.cls-1{fill:none;}</style></defs><title>delivery-truck</title><path class="cls-1" d="M789.26,347.34a8,8,0,0,1,0,11.31L770.91,377h66.44l-12-48H759.6v36.68l18.34-18.34A8,8,0,0,1,789.26,347.34Z" transform="translate(-435.8 -189)"/><path class="cls-1" d="M831.6,305a8,8,0,0,0-8-8h-64v16h64A8,8,0,0,0,831.6,305Z" transform="translate(-435.8 -189)"/><path class="cls-1" d="M578.8,457a32,32,0,1,0,32,32A32,32,0,0,0,578.8,457Zm0,48a16,16,0,1,1,16-16A16,16,0,0,1,578.8,505Z" transform="translate(-435.8 -189)"/><path class="cls-1" d="M494,465a8,8,0,0,0,8,8h31.54a48,48,0,0,1,90.51,0H743.6V257a8,8,0,0,0-8-8" transform="translate(-435.8 -189)"/><path class="cls-1" d="M839.6,417a8,8,0,0,1,8-8h22.63a24,24,0,0,0-22.62-16h-88v80h18.74a48,48,0,0,1,89.94-1.53A8,8,0,0,0,871.6,465V425h-24A8,8,0,0,1,839.6,417Zm-24,8a8,8,0,1,1,8-8A8,8,0,0,1,815.6,425Z" transform="translate(-435.8 -189)"/><path class="cls-1" d="M823.6,457a32,32,0,1,0,32,32A32,32,0,0,0,823.6,457Zm0,48a16,16,0,1,1,16-16A16,16,0,0,1,823.6,505Z" transform="translate(-435.8 -189)"/><circle cx="387.8" cy="300" r="16"/><circle cx="379.8" cy="228" r="8"/><circle cx="143" cy="300" r="16"/><path d="M854,377.51l-13.8-55.17A24,24,0,0,0,823.6,281h-64V257a24,24,0,0,0-24-24H559.35c.29,2.63,10.46,5.3,10.46,8a72.37,72.37,0,0,1-.46,8H735.6a8,8,0,0,1,8,8V473H624.05a48,48,0,0,0-90.51,0H502a8,8,0,0,1-8-8V322.72c-2,.18-4.11.28-6.2.28-3.33,0-6.59-10.25-9.8-10.68V465a24,24,0,0,0,24,24h28.8a48,48,0,0,0,96,0H775.6a48,48,0,1,0,96,0c0-.46,0-.91,0-1.37a24,24,0,0,0,16-22.63V417A40.06,40.06,0,0,0,854,377.51ZM578.8,521a32,32,0,1,1,32-32A32,32,0,0,1,578.8,521ZM759.6,297h64a8,8,0,1,1,0,16h-64Zm0,32h65.75l12,48H770.91l18.34-18.34a8,8,0,0,0-11.31-11.31L759.6,365.68Zm64,192a32,32,0,1,1,32-32A32,32,0,0,1,823.6,521Zm48-56a8,8,0,0,1-3.32,6.47A48,48,0,0,0,778.34,473H759.6V393h88a24,24,0,0,1,22.63,16H847.6a8,8,0,0,0,0,16h24Z" transform="translate(-435.8 -189)"/><path d="M579.35,253a71.9,71.9,0,1,0-71.54,80c2.09,0,4.15-.11,6.2-.28A71.9,71.9,0,0,0,579.35,253Zm-49.72,59.57a55.64,55.64,0,0,1-20,4.38c-.6,0-1.2,0-1.8,0a56,56,0,1,1,56-56c0,1.54-.08,3.06-.2,4.56a55.57,55.57,0,0,1-6.16,21.32A56.34,56.34,0,0,1,529.62,312.57Z" transform="translate(-435.8 -189)"/><path d="M529.8,265h-24V241a8,8,0,1,0-16,0v32a8,8,0,0,0,8,8h32a8,8,0,1,0,0-16Z" transform="translate(-435.8 -189)"/><path d="M478,316.33" transform="translate(-435.8 -189)"/></svg>