<svg id="Capa_1" fill="#58aa66" data-name="Capa 1" xmlns="http://www.w3.org/2000/svg" viewBox="0 0 512 354.96"><path d="M386.69,433.48a64.54,64.54,0,1,1,64.54-64.54A64.61,64.61,0,0,1,386.69,433.48Zm0-96.81A32.27,32.27,0,1,0,419,368.94,32.3,32.3,0,0,0,386.69,336.67Z" transform="translate(0 -78.52)"/><path d="M166.18,433.48a64.54,64.54,0,1,1,64.54-64.54A64.61,64.61,0,0,1,166.18,433.48Zm0-96.81a32.27,32.27,0,1,0,32.27,32.27A32.3,32.3,0,0,0,166.18,336.67Z" transform="translate(0 -78.52)"/><path d="M449.72,230.44l-43.93-87.38h-75V110.79h85a16.14,16.14,0,0,1,14.42,8.88l48.4,96.27Z" transform="translate(0 -78.52)"/><rect x="216.2" y="274.82" width="122.08" height="32.27"/><path d="M117.78,385.61H61.85a16.13,16.13,0,1,1,0-32.27h55.93a16.13,16.13,0,0,1,0,32.27Z" transform="translate(0 -78.52)"/><path d="M495.87,385.61H435.09a16.13,16.13,0,0,1,0-32.27h44.64V270.13l-23.5-30.27H330.76a16.13,16.13,0,0,1-16.13-16.13V110.79H61.85a16.13,16.13,0,0,1,0-32.27H330.76a16.13,16.13,0,0,1,16.13,16.13V207.6H464.13a16.11,16.11,0,0,1,12.74,6.24l31.74,40.87a16.16,16.16,0,0,1,3.39,9.9V369.48A16.13,16.13,0,0,1,495.87,385.61Z" transform="translate(0 -78.52)"/><path d="M116.71,303.87H42.49a16.13,16.13,0,0,1,0-32.27h74.22a16.13,16.13,0,1,1,0,32.27Z" transform="translate(0 -78.52)"/><path d="M153.82,240.4H16.13a16.13,16.13,0,0,1,0-32.27H153.82a16.13,16.13,0,0,1,0,32.27Z" transform="translate(0 -78.52)"/><path d="M180.17,176.94H42.49a16.13,16.13,0,0,1,0-32.27H180.17a16.13,16.13,0,0,1,0,32.27Z" transform="translate(0 -78.52)"/></svg>