<svg 
 xmlns="http://www.w3.org/2000/svg"
 xmlns:xlink="http://www.w3.org/1999/xlink"
 width="28px" height="29px">
<path fill-rule="evenodd"  fill="#f5ab00"
 d="M26.961,17.508 C27.070,17.800 27.088,18.091 27.016,18.383 C26.395,20.425 25.338,22.230 23.844,23.797 C23.625,24.016 23.370,24.152 23.078,24.207 C22.786,24.262 22.512,24.216 22.258,24.070 L20.453,23.031 C19.760,23.578 18.995,24.016 18.156,24.344 L18.156,26.422 C18.156,26.713 18.065,26.977 17.883,27.215 C17.700,27.452 17.445,27.606 17.117,27.680 C15.039,28.190 12.961,28.190 10.883,27.680 C10.555,27.606 10.299,27.452 10.117,27.215 C9.934,26.977 9.844,26.713 9.844,26.422 L9.844,24.344 C9.005,24.016 8.239,23.578 7.547,23.031 L5.742,24.070 C5.487,24.216 5.213,24.262 4.922,24.207 C4.630,24.152 4.375,24.016 4.156,23.797 C2.661,22.230 1.604,20.425 0.984,18.383 C0.911,18.091 0.930,17.800 1.039,17.508 C1.148,17.216 1.330,16.998 1.586,16.852 L3.391,15.813 C3.281,14.937 3.281,14.063 3.391,13.187 L1.586,12.148 C1.330,12.003 1.148,11.784 1.039,11.492 C0.930,11.201 0.911,10.909 0.984,10.617 C1.604,8.576 2.661,6.771 4.156,5.203 C4.375,4.984 4.630,4.848 4.922,4.793 C5.213,4.738 5.487,4.784 5.742,4.930 L7.547,5.969 C8.239,5.422 9.005,4.984 9.844,4.656 L9.844,2.578 C9.844,2.287 9.934,2.023 10.117,1.785 C10.299,1.548 10.555,1.394 10.883,1.320 C12.961,0.810 15.039,0.810 17.117,1.320 C17.445,1.394 17.700,1.548 17.883,1.785 C18.065,2.023 18.156,2.287 18.156,2.578 L18.156,4.656 C18.995,4.984 19.760,5.422 20.453,5.969 L22.258,4.930 C22.512,4.784 22.786,4.738 23.078,4.793 C23.370,4.848 23.625,4.984 23.844,5.203 C25.338,6.771 26.395,8.576 27.016,10.617 C27.088,10.909 27.070,11.201 26.961,11.492 C26.852,11.784 26.669,12.003 26.414,12.148 L24.609,13.187 C24.719,14.063 24.719,14.937 24.609,15.813 L26.414,16.852 C26.669,16.998 26.852,17.216 26.961,17.508 ZM25.211,18.219 L22.695,16.742 C22.877,15.758 22.969,15.011 22.969,14.500 C22.969,13.990 22.877,13.242 22.695,12.258 L25.211,10.781 C24.700,9.250 23.898,7.865 22.805,6.625 L20.289,8.102 C19.523,7.445 18.912,6.990 18.457,6.734 C18.001,6.480 17.317,6.188 16.406,5.859 L16.406,2.906 C14.802,2.578 13.198,2.578 11.594,2.906 L11.594,5.859 C10.682,6.188 9.998,6.480 9.543,6.734 C9.087,6.990 8.477,7.445 7.711,8.102 L5.195,6.625 C4.102,7.865 3.299,9.250 2.789,10.781 L5.305,12.258 C5.122,13.242 5.031,13.990 5.031,14.500 C5.031,15.011 5.122,15.758 5.305,16.742 L2.789,18.219 C3.299,19.750 4.102,21.136 5.195,22.375 L7.711,20.898 C8.477,21.555 9.087,22.011 9.543,22.266 C9.998,22.521 10.682,22.812 11.594,23.141 L11.594,26.094 C13.198,26.422 14.802,26.422 16.406,26.094 L16.406,23.141 C17.317,22.812 18.001,22.512 18.457,22.238 C18.912,21.965 19.523,21.519 20.289,20.898 L22.805,22.375 C23.898,21.136 24.700,19.750 25.211,18.219 L25.211,18.219 ZM17.719,10.781 C18.739,11.802 19.250,13.042 19.250,14.500 C19.250,15.959 18.739,17.198 17.719,18.219 C16.698,19.240 15.458,19.750 14.000,19.750 C12.541,19.750 11.302,19.240 10.281,18.219 C9.260,17.198 8.750,15.959 8.750,14.500 C8.750,13.042 9.260,11.802 10.281,10.781 C11.302,9.761 12.541,9.250 14.000,9.250 C15.458,9.250 16.698,9.761 17.719,10.781 ZM16.461,16.961 C17.153,16.269 17.500,15.448 17.500,14.500 C17.500,13.552 17.153,12.732 16.461,12.039 C15.768,11.347 14.948,11.000 14.000,11.000 C13.052,11.000 12.231,11.347 11.539,12.039 C10.846,12.732 10.500,13.552 10.500,14.500 C10.500,15.448 10.846,16.269 11.539,16.961 C12.231,17.654 13.052,18.000 14.000,18.000 C14.948,18.000 15.768,17.654 16.461,16.961 Z"/>
</svg>