<?xml version="1.0" encoding="utf-8"?>
<!-- Generator: Adobe Illustrator 21.0.2, SVG Export Plug-In . SVG Version: 6.00 Build 0)  -->
<svg width="32px" height="32px" version="1.1" id="Layer_1" xmlns="http://www.w3.org/2000/svg" xmlns:xlink="http://www.w3.org/1999/xlink" x="0px" y="0px"
	 viewBox="0 0 33 33" style="enable-background:new 0 0 33 33;" xml:space="preserve">
	<path fill="#181614" d="M30,25.6c-0.3,0.1-0.5,0.4-0.5,0.8v1.1c0,0.7-0.6,1.3-1.4,1.3c-0.8,0-1.4-0.6-1.4-1.3v-1.1
	c0-1.4,0.9-2.6,2.2-3.2c0.8-0.3,1.3-1,1.3-1.8c0,0,0,0,0,0c0-1.1-1-2-2.1-2c-1.2,0-2.1,0.9-2.1,2c0,0.7-0.6,1.3-1.4,1.3
	c-0.8,0-1.4-0.6-1.4-1.3c0-2.5,2.2-4.6,4.9-4.6c2.7,0,4.9,2,4.9,4.5c0,0,0,0,0,0.1C33,23.2,31.8,24.9,30,25.6z M6.3,22.3
	c0-0.7,0.6-1.3,1.4-1.3s1.4,0.6,1.4,1.3c0,0.7-0.6,1.3-1.4,1.3S6.3,23,6.3,22.3z M11.5,22.3c0-0.7,0.6-1.3,1.4-1.3s1.4,0.6,1.4,1.3
	c0,0.7-0.6,1.3-1.4,1.3S11.5,23,11.5,22.3z M16.6,22.3c0-0.7,0.6-1.3,1.4-1.3s1.4,0.6,1.4,1.3c0,0.7-0.6,1.3-1.4,1.3
	S16.6,23,16.6,22.3z M26.1,14.8c-0.2-0.1-0.4-0.1-0.8-0.1H5.5c-1.5,0-2.7,1.2-2.7,2.6v10.6c0,1.4,1.2,2.6,2.7,2.6h17.1
	c0.8,0,1.4,0.6,1.4,1.3S23.4,33,22.6,33H5.5c-3,0-5.5-2.3-5.5-5.2V17.3c0-2.8,2.5-5.2,5.5-5.2h1.6V7.6c0-4.2,3.7-7.6,8.2-7.6
	c4.5,0,8.2,3.4,8.2,7.6v4.5h1.7c0.6,0,1.1,0.1,1.5,0.2c0.7,0.2,1.2,0.9,0.9,1.6C27.5,14.6,26.8,15,26.1,14.8z M20.9,7.6
	c0-2.8-2.5-5-5.5-5c-3,0-5.5,2.2-5.5,5v4.5h11V7.6z M28.1,30.4c0.8,0,1.4,0.6,1.4,1.3S28.9,33,28.1,33c-0.8,0-1.4-0.6-1.4-1.3
	S27.4,30.4,28.1,30.4z"/>
</svg>
