<svg 
 xmlns="http://www.w3.org/2000/svg"
 xmlns:xlink="http://www.w3.org/1999/xlink"
 width="21px" height="21px">
<path fill-rule="evenodd"  fill="#00197f"
 d="M20.863,9.324 C20.954,9.416 21.000,9.516 21.000,9.625 L21.000,11.375 C21.000,11.484 20.954,11.585 20.863,11.676 C20.772,11.767 20.672,11.813 20.562,11.813 L11.813,11.813 L11.813,20.562 C11.813,20.672 11.766,20.773 11.676,20.863 C11.584,20.955 11.484,21.000 11.375,21.000 L9.625,21.000 C9.516,21.000 9.415,20.955 9.324,20.863 C9.233,20.773 9.187,20.672 9.187,20.562 L9.187,11.813 L0.438,11.813 C0.328,11.813 0.227,11.767 0.137,11.676 C0.045,11.585 0.000,11.484 0.000,11.375 L0.000,9.625 C0.000,9.516 0.045,9.416 0.137,9.324 C0.227,9.234 0.328,9.187 0.438,9.187 L9.187,9.187 L9.187,0.438 C9.187,0.328 9.233,0.228 9.324,0.137 C9.415,0.046 9.516,0.000 9.625,0.000 L11.375,0.000 C11.484,0.000 11.584,0.046 11.676,0.137 C11.766,0.228 11.813,0.328 11.813,0.438 L11.813,9.187 L20.562,9.187 C20.672,9.187 20.772,9.234 20.863,9.324 Z"/>

</svg>