<?xml version="1.0" encoding="utf-8"?>
<!-- Generator: Adobe Illustrator 21.0.2, SVG Export Plug-In . SVG Version: 6.00 Build 0)  -->
<svg version="1.1" id="Capa_1" xmlns="http://www.w3.org/2000/svg" xmlns:xlink="http://www.w3.org/1999/xlink" x="0px" y="0px"
	 viewBox="0 0 512 252" style="enable-background:new 0 0 512 252;" xml:space="preserve">
<style type="text/css">
	.st0{fill:#999999;}
</style>
<g>
	<g>
		<path class="st0" d="M490.2,106.2H69.9l69.6-69.3c7.8-7.7,7.8-20.3,0.1-28.1C131.9,1,119.3,1,111.5,8.7L7.8,111.9c0,0,0,0,0,0
			c-7.7,7.7-7.8,20.3,0,28.1c0,0,0,0,0,0l103.7,103.2c7.8,7.7,20.3,7.7,28.1-0.1c7.7-7.8,7.7-20.3-0.1-28.1l-69.6-69.3h420.2
			c11,0,19.8-8.9,19.8-19.8C510,115,501.1,106.2,490.2,106.2z"/>
	</g>
</g>
</svg>
