<svg id="Layer_1" data-name="Layer 1" xmlns="http://www.w3.org/2000/svg" xmlns:xlink="http://www.w3.org/1999/xlink" viewBox="0 0 247.24 124.99"><defs><style>.cls-1{fill:url(#linear-gradient);}</style><linearGradient id="linear-gradient" x1="144" y1="20.3" x2="144" y2="145.3" gradientUnits="userSpaceOnUse"><stop offset="0" stop-color="#f6921e"/><stop offset="1" stop-color="#f05a28"/></linearGradient></defs><title>Utyl_logo_Wbkgn</title><path class="cls-1" d="M44.05,20.3V71q0,13.15,4.93,19.4c3.5,3.95,7.09,5.92,14.77,5.92,7.45,0,11-2,14.77-5.92q5.26-5.92,5.26-19.4V20.3h23.34V73.62q0,21-11.84,31.89c-7.23,7.23-16.41,10.85-31.54,10.85s-24.3-3.62-31.54-10.85Q20.38,94.66,20.38,73.62V32.8a12.54,12.54,0,0,1,3.45-8.71,11,11,0,0,1,8.38-3.78ZM149.2,113.73a170.76,170.76,0,0,1-23.51-.33Q113,112.42,113,97.3V20.63h11.84a10.42,10.42,0,0,1,7.56,3.29,10.78,10.78,0,0,1,3.29,7.89v14.8H149.2v4.6a10.63,10.63,0,0,1-3.29,8.05A11,11,0,0,1,138,62.39h-2.3V91q0,5.59,6.58,5.59h6.9Zm11.47,30.91V126.56h6.25q6.57,0,10.36-3.12t1.48-10L154.62,46.7h21.32l13.75,43.69,10.51-35.8q2-7.89,10.52-7.89H223.5l-24,79.2q-3.95,10.85-9.86,15.45-5.92,3.94-19.4,3.94h-9.3C160.59,145.3,160.66,144.92,160.66,144.64Zm68.27-124h11.84a11.07,11.07,0,0,1,7.89,3.12,10.25,10.25,0,0,1,3.29,7.73v82.25h-23Zm32.49.07a6.36,6.36,0,0,1,3.05.8,5.7,5.7,0,0,1,2.32,2.3,6.24,6.24,0,0,1,0,6.2,5.77,5.77,0,0,1-2.3,2.3,6.24,6.24,0,0,1-6.18,0A5.8,5.8,0,0,1,256,30a6.21,6.21,0,0,1,0-6.2,5.73,5.73,0,0,1,2.32-2.3A6.36,6.36,0,0,1,261.42,20.7Zm0,1a5.28,5.28,0,0,0-2.55.67,4.81,4.81,0,0,0-1.94,1.92,5.16,5.16,0,0,0,0,5.17,4.87,4.87,0,0,0,1.92,1.92,5.17,5.17,0,0,0,5.15,0,4.85,4.85,0,0,0,1.92-1.92,5.19,5.19,0,0,0,0-5.17A4.78,4.78,0,0,0,264,22.4,5.29,5.29,0,0,0,261.42,21.73Zm-2.72,8.61V23.67H261a5.61,5.61,0,0,1,1.7.19,1.65,1.65,0,0,1,.84.65,1.71,1.71,0,0,1,.31,1,1.78,1.78,0,0,1-.52,1.28,2.07,2.07,0,0,1-1.39.61,1.83,1.83,0,0,1,.57.35,7.65,7.65,0,0,1,1,1.32l.81,1.31H263l-.59-1.05a5.39,5.39,0,0,0-1.13-1.55,1.39,1.39,0,0,0-.86-.23h-.63v2.84Zm1.08-3.76h1.31a2.11,2.11,0,0,0,1.28-.28,1,1,0,0,0,.18-1.27,1,1,0,0,0-.46-.35,3.39,3.39,0,0,0-1.08-.12h-1.23Z" transform="translate(-20.38 -20.3)"/></svg>